<mxfile host="app.diagrams.net" agent="Mozilla/5.0 (X11; Linux x86_64) AppleWebKit/537.36 (KHTML, like Gecko) Chrome/137.0.0.0 Safari/537.36" version="27.2.0">
  <diagram name="Page-1" id="0cR-pKz7L_kYpNocvQso">
    <mxGraphModel dx="839" dy="464" grid="1" gridSize="10" guides="1" tooltips="1" connect="1" arrows="1" fold="1" page="1" pageScale="1" pageWidth="827" pageHeight="1169" math="0" shadow="0">
      <root>
        <mxCell id="0" />
        <mxCell id="1" parent="0" />
        <mxCell id="x30-Vbi91ZwOQs9lhoYy-4" value="" style="edgeStyle=none;orthogonalLoop=1;jettySize=auto;html=1;rounded=0;fontSize=12;curved=1;shape=link;startSize=6;movable=0;resizable=0;rotatable=0;deletable=0;editable=0;locked=1;connectable=0;" parent="1" edge="1">
          <mxGeometry width="120" relative="1" as="geometry">
            <mxPoint x="320" y="680" as="sourcePoint" />
            <mxPoint x="320" y="320" as="targetPoint" />
            <Array as="points" />
          </mxGeometry>
        </mxCell>
        <mxCell id="x30-Vbi91ZwOQs9lhoYy-7" value="" style="edgeStyle=none;orthogonalLoop=1;jettySize=auto;html=1;rounded=0;fontSize=12;curved=1;shape=link;startSize=6;movable=0;resizable=0;rotatable=0;deletable=0;editable=0;locked=1;connectable=0;" parent="1" edge="1">
          <mxGeometry width="120" relative="1" as="geometry">
            <mxPoint x="520" y="680" as="sourcePoint" />
            <mxPoint x="520" y="320" as="targetPoint" />
            <Array as="points">
              <mxPoint x="520" y="500" />
            </Array>
          </mxGeometry>
        </mxCell>
        <mxCell id="x30-Vbi91ZwOQs9lhoYy-10" value="" style="edgeStyle=none;orthogonalLoop=1;jettySize=auto;html=1;rounded=0;fontSize=12;curved=1;shape=link;startSize=6;movable=0;resizable=0;rotatable=0;deletable=0;editable=0;locked=1;connectable=0;" parent="1" edge="1">
          <mxGeometry width="120" relative="1" as="geometry">
            <mxPoint x="560" y="400" as="sourcePoint" />
            <mxPoint x="280" y="400" as="targetPoint" />
            <Array as="points">
              <mxPoint x="414" y="400" />
            </Array>
          </mxGeometry>
        </mxCell>
        <mxCell id="x30-Vbi91ZwOQs9lhoYy-11" value="" style="edgeStyle=none;orthogonalLoop=1;jettySize=auto;html=1;rounded=0;fontSize=12;curved=1;shape=link;startSize=6;movable=0;resizable=0;rotatable=0;deletable=0;editable=0;locked=1;connectable=0;" parent="1" edge="1">
          <mxGeometry width="120" relative="1" as="geometry">
            <mxPoint x="530" y="640" as="sourcePoint" />
            <mxPoint x="310" y="640" as="targetPoint" />
            <Array as="points">
              <mxPoint x="414" y="640" />
            </Array>
          </mxGeometry>
        </mxCell>
        <mxCell id="TmjBKtmBgoDeZt3z3jt7-1" value="" style="edgeStyle=none;orthogonalLoop=1;jettySize=auto;html=1;rounded=0;fontSize=12;curved=1;shape=link;startSize=6;movable=0;resizable=0;rotatable=0;deletable=0;editable=0;locked=1;connectable=0;" parent="1" edge="1">
          <mxGeometry width="120" relative="1" as="geometry">
            <mxPoint x="600" y="200" as="sourcePoint" />
            <mxPoint x="240" y="200" as="targetPoint" />
            <Array as="points">
              <mxPoint x="464" y="200" />
            </Array>
          </mxGeometry>
        </mxCell>
        <mxCell id="VJrF4VuwuTOzUl-eug8C-1" value="" style="edgeStyle=none;orthogonalLoop=1;jettySize=auto;html=1;rounded=0;fontSize=12;curved=1;shape=link;startSize=6;movable=0;resizable=0;rotatable=0;deletable=0;editable=0;locked=1;connectable=0;" parent="1" edge="1">
          <mxGeometry width="120" relative="1" as="geometry">
            <mxPoint x="600" y="120" as="sourcePoint" />
            <mxPoint x="240" y="120" as="targetPoint" />
            <Array as="points">
              <mxPoint x="464" y="120" />
            </Array>
          </mxGeometry>
        </mxCell>
        <mxCell id="VJrF4VuwuTOzUl-eug8C-2" value="" style="edgeStyle=none;orthogonalLoop=1;jettySize=auto;html=1;rounded=0;fontSize=12;curved=1;shape=link;startSize=6;movable=0;resizable=0;rotatable=0;deletable=0;editable=0;locked=1;connectable=0;" parent="1" edge="1">
          <mxGeometry width="120" relative="1" as="geometry">
            <mxPoint x="680" y="320" as="sourcePoint" />
            <mxPoint x="600" y="400" as="targetPoint" />
            <Array as="points" />
          </mxGeometry>
        </mxCell>
        <mxCell id="VJrF4VuwuTOzUl-eug8C-3" value="" style="edgeStyle=none;orthogonalLoop=1;jettySize=auto;html=1;rounded=0;fontSize=12;curved=1;shape=link;startSize=6;movable=0;resizable=0;rotatable=0;deletable=0;editable=0;locked=1;connectable=0;" parent="1" edge="1">
          <mxGeometry width="120" relative="1" as="geometry">
            <mxPoint x="160" y="320" as="sourcePoint" />
            <mxPoint x="240" y="400" as="targetPoint" />
            <Array as="points" />
          </mxGeometry>
        </mxCell>
        <mxCell id="VJrF4VuwuTOzUl-eug8C-97" value="Patch" style="shape=table;startSize=40;container=1;collapsible=0;childLayout=tableLayout;movable=1;resizable=1;rotatable=1;deletable=1;editable=1;locked=0;connectable=1;" parent="1" vertex="1">
          <mxGeometry x="40" y="720.0000000000005" width="480" height="439.99999999998863" as="geometry" />
        </mxCell>
        <mxCell id="VJrF4VuwuTOzUl-eug8C-98" value="" style="shape=tableRow;horizontal=0;startSize=0;swimlaneHead=0;swimlaneBody=0;strokeColor=inherit;top=0;left=0;bottom=0;right=0;collapsible=0;dropTarget=0;fillColor=none;points=[[0,0.5],[1,0.5]];portConstraint=eastwest;" parent="VJrF4VuwuTOzUl-eug8C-97" vertex="1">
          <mxGeometry y="40" width="480" height="40" as="geometry" />
        </mxCell>
        <mxCell id="VJrF4VuwuTOzUl-eug8C-99" value="1" style="shape=partialRectangle;html=1;whiteSpace=wrap;connectable=0;strokeColor=inherit;overflow=hidden;fillColor=none;top=0;left=0;bottom=0;right=0;pointerEvents=1;" parent="VJrF4VuwuTOzUl-eug8C-98" vertex="1">
          <mxGeometry width="40" height="40" as="geometry">
            <mxRectangle width="40" height="40" as="alternateBounds" />
          </mxGeometry>
        </mxCell>
        <mxCell id="VJrF4VuwuTOzUl-eug8C-100" value="Crossing Fresnel (SR)" style="shape=partialRectangle;html=1;whiteSpace=wrap;connectable=0;strokeColor=inherit;overflow=hidden;fillColor=none;top=0;left=0;bottom=0;right=0;pointerEvents=1;" parent="VJrF4VuwuTOzUl-eug8C-98" vertex="1">
          <mxGeometry x="40" width="80" height="40" as="geometry">
            <mxRectangle width="80" height="40" as="alternateBounds" />
          </mxGeometry>
        </mxCell>
        <mxCell id="uhPALGmHis_ivpPRdaCl-66" value="11" style="shape=partialRectangle;html=1;whiteSpace=wrap;connectable=0;strokeColor=inherit;overflow=hidden;fillColor=none;top=0;left=0;bottom=0;right=0;pointerEvents=1;" parent="VJrF4VuwuTOzUl-eug8C-98" vertex="1">
          <mxGeometry x="120" width="90" height="40" as="geometry">
            <mxRectangle width="90" height="40" as="alternateBounds" />
          </mxGeometry>
        </mxCell>
        <mxCell id="uhPALGmHis_ivpPRdaCl-96" style="shape=partialRectangle;html=1;whiteSpace=wrap;connectable=1;strokeColor=inherit;overflow=hidden;fillColor=none;top=0;left=0;bottom=0;right=0;pointerEvents=1;movable=1;resizable=1;rotatable=1;deletable=1;editable=1;locked=0;" parent="VJrF4VuwuTOzUl-eug8C-98" vertex="1">
          <mxGeometry x="210" width="90" height="40" as="geometry">
            <mxRectangle width="90" height="40" as="alternateBounds" />
          </mxGeometry>
        </mxCell>
        <mxCell id="uhPALGmHis_ivpPRdaCl-86" value="21" style="shape=partialRectangle;html=1;whiteSpace=wrap;connectable=0;strokeColor=inherit;overflow=hidden;fillColor=none;top=0;left=0;bottom=0;right=0;pointerEvents=1;" parent="VJrF4VuwuTOzUl-eug8C-98" vertex="1">
          <mxGeometry x="300" width="90" height="40" as="geometry">
            <mxRectangle width="90" height="40" as="alternateBounds" />
          </mxGeometry>
        </mxCell>
        <mxCell id="uhPALGmHis_ivpPRdaCl-76" style="shape=partialRectangle;html=1;whiteSpace=wrap;connectable=0;strokeColor=inherit;overflow=hidden;fillColor=none;top=0;left=0;bottom=0;right=0;pointerEvents=1;" parent="VJrF4VuwuTOzUl-eug8C-98" vertex="1">
          <mxGeometry x="390" width="90" height="40" as="geometry">
            <mxRectangle width="90" height="40" as="alternateBounds" />
          </mxGeometry>
        </mxCell>
        <mxCell id="VJrF4VuwuTOzUl-eug8C-101" value="" style="shape=tableRow;horizontal=0;startSize=0;swimlaneHead=0;swimlaneBody=0;strokeColor=inherit;top=0;left=0;bottom=0;right=0;collapsible=0;dropTarget=0;fillColor=none;points=[[0,0.5],[1,0.5]];portConstraint=eastwest;" parent="VJrF4VuwuTOzUl-eug8C-97" vertex="1">
          <mxGeometry y="80" width="480" height="40" as="geometry" />
        </mxCell>
        <mxCell id="VJrF4VuwuTOzUl-eug8C-102" value="2" style="shape=partialRectangle;html=1;whiteSpace=wrap;connectable=0;strokeColor=inherit;overflow=hidden;fillColor=none;top=0;left=0;bottom=0;right=0;pointerEvents=1;" parent="VJrF4VuwuTOzUl-eug8C-101" vertex="1">
          <mxGeometry width="40" height="40" as="geometry">
            <mxRectangle width="40" height="40" as="alternateBounds" />
          </mxGeometry>
        </mxCell>
        <mxCell id="VJrF4VuwuTOzUl-eug8C-103" value="Crossing Fresnel (SL)" style="shape=partialRectangle;html=1;whiteSpace=wrap;connectable=0;strokeColor=inherit;overflow=hidden;fillColor=none;top=0;left=0;bottom=0;right=0;pointerEvents=1;" parent="VJrF4VuwuTOzUl-eug8C-101" vertex="1">
          <mxGeometry x="40" width="80" height="40" as="geometry">
            <mxRectangle width="80" height="40" as="alternateBounds" />
          </mxGeometry>
        </mxCell>
        <mxCell id="uhPALGmHis_ivpPRdaCl-67" value="12" style="shape=partialRectangle;html=1;whiteSpace=wrap;connectable=0;strokeColor=inherit;overflow=hidden;fillColor=none;top=0;left=0;bottom=0;right=0;pointerEvents=1;" parent="VJrF4VuwuTOzUl-eug8C-101" vertex="1">
          <mxGeometry x="120" width="90" height="40" as="geometry">
            <mxRectangle width="90" height="40" as="alternateBounds" />
          </mxGeometry>
        </mxCell>
        <mxCell id="uhPALGmHis_ivpPRdaCl-97" style="shape=partialRectangle;html=1;whiteSpace=wrap;connectable=0;strokeColor=inherit;overflow=hidden;fillColor=none;top=0;left=0;bottom=0;right=0;pointerEvents=1;" parent="VJrF4VuwuTOzUl-eug8C-101" vertex="1">
          <mxGeometry x="210" width="90" height="40" as="geometry">
            <mxRectangle width="90" height="40" as="alternateBounds" />
          </mxGeometry>
        </mxCell>
        <mxCell id="uhPALGmHis_ivpPRdaCl-87" value="22" style="shape=partialRectangle;html=1;whiteSpace=wrap;connectable=0;strokeColor=inherit;overflow=hidden;fillColor=none;top=0;left=0;bottom=0;right=0;pointerEvents=1;" parent="VJrF4VuwuTOzUl-eug8C-101" vertex="1">
          <mxGeometry x="300" width="90" height="40" as="geometry">
            <mxRectangle width="90" height="40" as="alternateBounds" />
          </mxGeometry>
        </mxCell>
        <mxCell id="uhPALGmHis_ivpPRdaCl-77" style="shape=partialRectangle;html=1;whiteSpace=wrap;connectable=0;strokeColor=inherit;overflow=hidden;fillColor=none;top=0;left=0;bottom=0;right=0;pointerEvents=1;" parent="VJrF4VuwuTOzUl-eug8C-101" vertex="1">
          <mxGeometry x="390" width="90" height="40" as="geometry">
            <mxRectangle width="90" height="40" as="alternateBounds" />
          </mxGeometry>
        </mxCell>
        <mxCell id="VJrF4VuwuTOzUl-eug8C-104" value="" style="shape=tableRow;horizontal=0;startSize=0;swimlaneHead=0;swimlaneBody=0;strokeColor=inherit;top=0;left=0;bottom=0;right=0;collapsible=0;dropTarget=0;fillColor=none;points=[[0,0.5],[1,0.5]];portConstraint=eastwest;" parent="VJrF4VuwuTOzUl-eug8C-97" vertex="1">
          <mxGeometry y="120" width="480" height="40" as="geometry" />
        </mxCell>
        <mxCell id="VJrF4VuwuTOzUl-eug8C-105" value="3" style="shape=partialRectangle;html=1;whiteSpace=wrap;connectable=0;strokeColor=inherit;overflow=hidden;fillColor=none;top=0;left=0;bottom=0;right=0;pointerEvents=1;" parent="VJrF4VuwuTOzUl-eug8C-104" vertex="1">
          <mxGeometry width="40" height="40" as="geometry">
            <mxRectangle width="40" height="40" as="alternateBounds" />
          </mxGeometry>
        </mxCell>
        <mxCell id="VJrF4VuwuTOzUl-eug8C-106" value="Fresnel (SR)" style="shape=partialRectangle;html=1;whiteSpace=wrap;connectable=0;strokeColor=inherit;overflow=hidden;fillColor=none;top=0;left=0;bottom=0;right=0;pointerEvents=1;" parent="VJrF4VuwuTOzUl-eug8C-104" vertex="1">
          <mxGeometry x="40" width="80" height="40" as="geometry">
            <mxRectangle width="80" height="40" as="alternateBounds" />
          </mxGeometry>
        </mxCell>
        <mxCell id="uhPALGmHis_ivpPRdaCl-68" value="13" style="shape=partialRectangle;html=1;whiteSpace=wrap;connectable=0;strokeColor=inherit;overflow=hidden;fillColor=none;top=0;left=0;bottom=0;right=0;pointerEvents=1;" parent="VJrF4VuwuTOzUl-eug8C-104" vertex="1">
          <mxGeometry x="120" width="90" height="40" as="geometry">
            <mxRectangle width="90" height="40" as="alternateBounds" />
          </mxGeometry>
        </mxCell>
        <mxCell id="uhPALGmHis_ivpPRdaCl-98" style="shape=partialRectangle;html=1;whiteSpace=wrap;connectable=0;strokeColor=inherit;overflow=hidden;fillColor=none;top=0;left=0;bottom=0;right=0;pointerEvents=1;" parent="VJrF4VuwuTOzUl-eug8C-104" vertex="1">
          <mxGeometry x="210" width="90" height="40" as="geometry">
            <mxRectangle width="90" height="40" as="alternateBounds" />
          </mxGeometry>
        </mxCell>
        <mxCell id="uhPALGmHis_ivpPRdaCl-88" value="23" style="shape=partialRectangle;html=1;whiteSpace=wrap;connectable=0;strokeColor=inherit;overflow=hidden;fillColor=none;top=0;left=0;bottom=0;right=0;pointerEvents=1;" parent="VJrF4VuwuTOzUl-eug8C-104" vertex="1">
          <mxGeometry x="300" width="90" height="40" as="geometry">
            <mxRectangle width="90" height="40" as="alternateBounds" />
          </mxGeometry>
        </mxCell>
        <mxCell id="uhPALGmHis_ivpPRdaCl-78" style="shape=partialRectangle;html=1;whiteSpace=wrap;connectable=0;strokeColor=inherit;overflow=hidden;fillColor=none;top=0;left=0;bottom=0;right=0;pointerEvents=1;" parent="VJrF4VuwuTOzUl-eug8C-104" vertex="1">
          <mxGeometry x="390" width="90" height="40" as="geometry">
            <mxRectangle width="90" height="40" as="alternateBounds" />
          </mxGeometry>
        </mxCell>
        <mxCell id="VJrF4VuwuTOzUl-eug8C-107" value="" style="shape=tableRow;horizontal=0;startSize=0;swimlaneHead=0;swimlaneBody=0;strokeColor=inherit;top=0;left=0;bottom=0;right=0;collapsible=0;dropTarget=0;fillColor=none;points=[[0,0.5],[1,0.5]];portConstraint=eastwest;" parent="VJrF4VuwuTOzUl-eug8C-97" vertex="1">
          <mxGeometry y="160" width="480" height="40" as="geometry" />
        </mxCell>
        <mxCell id="VJrF4VuwuTOzUl-eug8C-108" value="4" style="shape=partialRectangle;html=1;whiteSpace=wrap;connectable=0;strokeColor=inherit;overflow=hidden;fillColor=none;top=0;left=0;bottom=0;right=0;pointerEvents=1;" parent="VJrF4VuwuTOzUl-eug8C-107" vertex="1">
          <mxGeometry width="40" height="40" as="geometry">
            <mxRectangle width="40" height="40" as="alternateBounds" />
          </mxGeometry>
        </mxCell>
        <mxCell id="VJrF4VuwuTOzUl-eug8C-109" value="" style="shape=partialRectangle;html=1;whiteSpace=wrap;connectable=0;strokeColor=inherit;overflow=hidden;fillColor=none;top=0;left=0;bottom=0;right=0;pointerEvents=1;" parent="VJrF4VuwuTOzUl-eug8C-107" vertex="1">
          <mxGeometry x="40" width="80" height="40" as="geometry">
            <mxRectangle width="80" height="40" as="alternateBounds" />
          </mxGeometry>
        </mxCell>
        <mxCell id="uhPALGmHis_ivpPRdaCl-69" value="14" style="shape=partialRectangle;html=1;whiteSpace=wrap;connectable=0;strokeColor=inherit;overflow=hidden;fillColor=none;top=0;left=0;bottom=0;right=0;pointerEvents=1;" parent="VJrF4VuwuTOzUl-eug8C-107" vertex="1">
          <mxGeometry x="120" width="90" height="40" as="geometry">
            <mxRectangle width="90" height="40" as="alternateBounds" />
          </mxGeometry>
        </mxCell>
        <mxCell id="uhPALGmHis_ivpPRdaCl-99" style="shape=partialRectangle;html=1;whiteSpace=wrap;connectable=0;strokeColor=inherit;overflow=hidden;fillColor=none;top=0;left=0;bottom=0;right=0;pointerEvents=1;" parent="VJrF4VuwuTOzUl-eug8C-107" vertex="1">
          <mxGeometry x="210" width="90" height="40" as="geometry">
            <mxRectangle width="90" height="40" as="alternateBounds" />
          </mxGeometry>
        </mxCell>
        <mxCell id="uhPALGmHis_ivpPRdaCl-89" value="24" style="shape=partialRectangle;html=1;whiteSpace=wrap;connectable=0;strokeColor=inherit;overflow=hidden;fillColor=none;top=0;left=0;bottom=0;right=0;pointerEvents=1;" parent="VJrF4VuwuTOzUl-eug8C-107" vertex="1">
          <mxGeometry x="300" width="90" height="40" as="geometry">
            <mxRectangle width="90" height="40" as="alternateBounds" />
          </mxGeometry>
        </mxCell>
        <mxCell id="uhPALGmHis_ivpPRdaCl-79" style="shape=partialRectangle;html=1;whiteSpace=wrap;connectable=0;strokeColor=inherit;overflow=hidden;fillColor=none;top=0;left=0;bottom=0;right=0;pointerEvents=1;" parent="VJrF4VuwuTOzUl-eug8C-107" vertex="1">
          <mxGeometry x="390" width="90" height="40" as="geometry">
            <mxRectangle width="90" height="40" as="alternateBounds" />
          </mxGeometry>
        </mxCell>
        <mxCell id="VJrF4VuwuTOzUl-eug8C-110" value="" style="shape=tableRow;horizontal=0;startSize=0;swimlaneHead=0;swimlaneBody=0;strokeColor=inherit;top=0;left=0;bottom=0;right=0;collapsible=0;dropTarget=0;fillColor=none;points=[[0,0.5],[1,0.5]];portConstraint=eastwest;" parent="VJrF4VuwuTOzUl-eug8C-97" vertex="1">
          <mxGeometry y="200" width="480" height="40" as="geometry" />
        </mxCell>
        <mxCell id="VJrF4VuwuTOzUl-eug8C-111" value="5" style="shape=partialRectangle;html=1;whiteSpace=wrap;connectable=0;strokeColor=inherit;overflow=hidden;fillColor=none;top=0;left=0;bottom=0;right=0;pointerEvents=1;" parent="VJrF4VuwuTOzUl-eug8C-110" vertex="1">
          <mxGeometry width="40" height="40" as="geometry">
            <mxRectangle width="40" height="40" as="alternateBounds" />
          </mxGeometry>
        </mxCell>
        <mxCell id="VJrF4VuwuTOzUl-eug8C-112" value="Profile" style="shape=partialRectangle;html=1;whiteSpace=wrap;connectable=0;strokeColor=inherit;overflow=hidden;fillColor=none;top=0;left=0;bottom=0;right=0;pointerEvents=1;" parent="VJrF4VuwuTOzUl-eug8C-110" vertex="1">
          <mxGeometry x="40" width="80" height="40" as="geometry">
            <mxRectangle width="80" height="40" as="alternateBounds" />
          </mxGeometry>
        </mxCell>
        <mxCell id="uhPALGmHis_ivpPRdaCl-70" value="15" style="shape=partialRectangle;html=1;whiteSpace=wrap;connectable=0;strokeColor=inherit;overflow=hidden;fillColor=none;top=0;left=0;bottom=0;right=0;pointerEvents=1;" parent="VJrF4VuwuTOzUl-eug8C-110" vertex="1">
          <mxGeometry x="120" width="90" height="40" as="geometry">
            <mxRectangle width="90" height="40" as="alternateBounds" />
          </mxGeometry>
        </mxCell>
        <mxCell id="uhPALGmHis_ivpPRdaCl-100" style="shape=partialRectangle;html=1;whiteSpace=wrap;connectable=0;strokeColor=inherit;overflow=hidden;fillColor=none;top=0;left=0;bottom=0;right=0;pointerEvents=1;" parent="VJrF4VuwuTOzUl-eug8C-110" vertex="1">
          <mxGeometry x="210" width="90" height="40" as="geometry">
            <mxRectangle width="90" height="40" as="alternateBounds" />
          </mxGeometry>
        </mxCell>
        <mxCell id="uhPALGmHis_ivpPRdaCl-90" value="25" style="shape=partialRectangle;html=1;whiteSpace=wrap;connectable=0;strokeColor=inherit;overflow=hidden;fillColor=none;top=0;left=0;bottom=0;right=0;pointerEvents=1;" parent="VJrF4VuwuTOzUl-eug8C-110" vertex="1">
          <mxGeometry x="300" width="90" height="40" as="geometry">
            <mxRectangle width="90" height="40" as="alternateBounds" />
          </mxGeometry>
        </mxCell>
        <mxCell id="uhPALGmHis_ivpPRdaCl-80" value="Flood (SR) - Red" style="shape=partialRectangle;html=1;whiteSpace=wrap;connectable=0;strokeColor=inherit;overflow=hidden;fillColor=none;top=0;left=0;bottom=0;right=0;pointerEvents=1;" parent="VJrF4VuwuTOzUl-eug8C-110" vertex="1">
          <mxGeometry x="390" width="90" height="40" as="geometry">
            <mxRectangle width="90" height="40" as="alternateBounds" />
          </mxGeometry>
        </mxCell>
        <mxCell id="VJrF4VuwuTOzUl-eug8C-113" value="" style="shape=tableRow;horizontal=0;startSize=0;swimlaneHead=0;swimlaneBody=0;strokeColor=inherit;top=0;left=0;bottom=0;right=0;collapsible=0;dropTarget=0;fillColor=none;points=[[0,0.5],[1,0.5]];portConstraint=eastwest;" parent="VJrF4VuwuTOzUl-eug8C-97" vertex="1">
          <mxGeometry y="240" width="480" height="40" as="geometry" />
        </mxCell>
        <mxCell id="VJrF4VuwuTOzUl-eug8C-114" value="6" style="shape=partialRectangle;html=1;whiteSpace=wrap;connectable=0;strokeColor=inherit;overflow=hidden;fillColor=none;top=0;left=0;bottom=0;right=0;pointerEvents=1;" parent="VJrF4VuwuTOzUl-eug8C-113" vertex="1">
          <mxGeometry width="40" height="40" as="geometry">
            <mxRectangle width="40" height="40" as="alternateBounds" />
          </mxGeometry>
        </mxCell>
        <mxCell id="VJrF4VuwuTOzUl-eug8C-115" value="Fresnel (SL)" style="shape=partialRectangle;html=1;whiteSpace=wrap;connectable=0;strokeColor=inherit;overflow=hidden;fillColor=none;top=0;left=0;bottom=0;right=0;pointerEvents=1;" parent="VJrF4VuwuTOzUl-eug8C-113" vertex="1">
          <mxGeometry x="40" width="80" height="40" as="geometry">
            <mxRectangle width="80" height="40" as="alternateBounds" />
          </mxGeometry>
        </mxCell>
        <mxCell id="uhPALGmHis_ivpPRdaCl-71" value="16" style="shape=partialRectangle;html=1;whiteSpace=wrap;connectable=0;strokeColor=inherit;overflow=hidden;fillColor=none;top=0;left=0;bottom=0;right=0;pointerEvents=1;" parent="VJrF4VuwuTOzUl-eug8C-113" vertex="1">
          <mxGeometry x="120" width="90" height="40" as="geometry">
            <mxRectangle width="90" height="40" as="alternateBounds" />
          </mxGeometry>
        </mxCell>
        <mxCell id="uhPALGmHis_ivpPRdaCl-101" style="shape=partialRectangle;html=1;whiteSpace=wrap;connectable=0;strokeColor=inherit;overflow=hidden;fillColor=none;top=0;left=0;bottom=0;right=0;pointerEvents=1;" parent="VJrF4VuwuTOzUl-eug8C-113" vertex="1">
          <mxGeometry x="210" width="90" height="40" as="geometry">
            <mxRectangle width="90" height="40" as="alternateBounds" />
          </mxGeometry>
        </mxCell>
        <mxCell id="uhPALGmHis_ivpPRdaCl-91" value="26" style="shape=partialRectangle;html=1;whiteSpace=wrap;connectable=0;strokeColor=inherit;overflow=hidden;fillColor=none;top=0;left=0;bottom=0;right=0;pointerEvents=1;" parent="VJrF4VuwuTOzUl-eug8C-113" vertex="1">
          <mxGeometry x="300" width="90" height="40" as="geometry">
            <mxRectangle width="90" height="40" as="alternateBounds" />
          </mxGeometry>
        </mxCell>
        <mxCell id="uhPALGmHis_ivpPRdaCl-81" style="shape=partialRectangle;html=1;whiteSpace=wrap;connectable=0;strokeColor=inherit;overflow=hidden;fillColor=none;top=0;left=0;bottom=0;right=0;pointerEvents=1;" parent="VJrF4VuwuTOzUl-eug8C-113" vertex="1">
          <mxGeometry x="390" width="90" height="40" as="geometry">
            <mxRectangle width="90" height="40" as="alternateBounds" />
          </mxGeometry>
        </mxCell>
        <mxCell id="VJrF4VuwuTOzUl-eug8C-116" value="" style="shape=tableRow;horizontal=0;startSize=0;swimlaneHead=0;swimlaneBody=0;strokeColor=inherit;top=0;left=0;bottom=0;right=0;collapsible=0;dropTarget=0;fillColor=none;points=[[0,0.5],[1,0.5]];portConstraint=eastwest;" parent="VJrF4VuwuTOzUl-eug8C-97" vertex="1">
          <mxGeometry y="280" width="480" height="40" as="geometry" />
        </mxCell>
        <mxCell id="VJrF4VuwuTOzUl-eug8C-117" value="7" style="shape=partialRectangle;html=1;whiteSpace=wrap;connectable=0;strokeColor=inherit;overflow=hidden;fillColor=none;top=0;left=0;bottom=0;right=0;pointerEvents=1;" parent="VJrF4VuwuTOzUl-eug8C-116" vertex="1">
          <mxGeometry width="40" height="40" as="geometry">
            <mxRectangle width="40" height="40" as="alternateBounds" />
          </mxGeometry>
        </mxCell>
        <mxCell id="VJrF4VuwuTOzUl-eug8C-118" value="" style="shape=partialRectangle;html=1;whiteSpace=wrap;connectable=0;strokeColor=inherit;overflow=hidden;fillColor=none;top=0;left=0;bottom=0;right=0;pointerEvents=1;" parent="VJrF4VuwuTOzUl-eug8C-116" vertex="1">
          <mxGeometry x="40" width="80" height="40" as="geometry">
            <mxRectangle width="80" height="40" as="alternateBounds" />
          </mxGeometry>
        </mxCell>
        <mxCell id="uhPALGmHis_ivpPRdaCl-72" value="17" style="shape=partialRectangle;html=1;whiteSpace=wrap;connectable=0;strokeColor=inherit;overflow=hidden;fillColor=none;top=0;left=0;bottom=0;right=0;pointerEvents=1;" parent="VJrF4VuwuTOzUl-eug8C-116" vertex="1">
          <mxGeometry x="120" width="90" height="40" as="geometry">
            <mxRectangle width="90" height="40" as="alternateBounds" />
          </mxGeometry>
        </mxCell>
        <mxCell id="uhPALGmHis_ivpPRdaCl-102" style="shape=partialRectangle;html=1;whiteSpace=wrap;connectable=0;strokeColor=inherit;overflow=hidden;fillColor=none;top=0;left=0;bottom=0;right=0;pointerEvents=1;" parent="VJrF4VuwuTOzUl-eug8C-116" vertex="1">
          <mxGeometry x="210" width="90" height="40" as="geometry">
            <mxRectangle width="90" height="40" as="alternateBounds" />
          </mxGeometry>
        </mxCell>
        <mxCell id="uhPALGmHis_ivpPRdaCl-92" value="27" style="shape=partialRectangle;html=1;whiteSpace=wrap;connectable=0;strokeColor=inherit;overflow=hidden;fillColor=none;top=0;left=0;bottom=0;right=0;pointerEvents=1;" parent="VJrF4VuwuTOzUl-eug8C-116" vertex="1">
          <mxGeometry x="300" width="90" height="40" as="geometry">
            <mxRectangle width="90" height="40" as="alternateBounds" />
          </mxGeometry>
        </mxCell>
        <mxCell id="uhPALGmHis_ivpPRdaCl-82" style="shape=partialRectangle;html=1;whiteSpace=wrap;connectable=0;strokeColor=inherit;overflow=hidden;fillColor=none;top=0;left=0;bottom=0;right=0;pointerEvents=1;" parent="VJrF4VuwuTOzUl-eug8C-116" vertex="1">
          <mxGeometry x="390" width="90" height="40" as="geometry">
            <mxRectangle width="90" height="40" as="alternateBounds" />
          </mxGeometry>
        </mxCell>
        <mxCell id="VJrF4VuwuTOzUl-eug8C-119" value="" style="shape=tableRow;horizontal=0;startSize=0;swimlaneHead=0;swimlaneBody=0;strokeColor=inherit;top=0;left=0;bottom=0;right=0;collapsible=0;dropTarget=0;fillColor=none;points=[[0,0.5],[1,0.5]];portConstraint=eastwest;" parent="VJrF4VuwuTOzUl-eug8C-97" vertex="1">
          <mxGeometry y="320" width="480" height="40" as="geometry" />
        </mxCell>
        <mxCell id="VJrF4VuwuTOzUl-eug8C-120" value="8" style="shape=partialRectangle;html=1;whiteSpace=wrap;connectable=0;strokeColor=inherit;overflow=hidden;fillColor=none;top=0;left=0;bottom=0;right=0;pointerEvents=1;" parent="VJrF4VuwuTOzUl-eug8C-119" vertex="1">
          <mxGeometry width="40" height="40" as="geometry">
            <mxRectangle width="40" height="40" as="alternateBounds" />
          </mxGeometry>
        </mxCell>
        <mxCell id="VJrF4VuwuTOzUl-eug8C-121" value="" style="shape=partialRectangle;html=1;whiteSpace=wrap;connectable=0;strokeColor=inherit;overflow=hidden;fillColor=none;top=0;left=0;bottom=0;right=0;pointerEvents=1;" parent="VJrF4VuwuTOzUl-eug8C-119" vertex="1">
          <mxGeometry x="40" width="80" height="40" as="geometry">
            <mxRectangle width="80" height="40" as="alternateBounds" />
          </mxGeometry>
        </mxCell>
        <mxCell id="uhPALGmHis_ivpPRdaCl-73" value="18" style="shape=partialRectangle;html=1;whiteSpace=wrap;connectable=0;strokeColor=inherit;overflow=hidden;fillColor=none;top=0;left=0;bottom=0;right=0;pointerEvents=1;" parent="VJrF4VuwuTOzUl-eug8C-119" vertex="1">
          <mxGeometry x="120" width="90" height="40" as="geometry">
            <mxRectangle width="90" height="40" as="alternateBounds" />
          </mxGeometry>
        </mxCell>
        <mxCell id="uhPALGmHis_ivpPRdaCl-103" style="shape=partialRectangle;html=1;whiteSpace=wrap;connectable=0;strokeColor=inherit;overflow=hidden;fillColor=none;top=0;left=0;bottom=0;right=0;pointerEvents=1;" parent="VJrF4VuwuTOzUl-eug8C-119" vertex="1">
          <mxGeometry x="210" width="90" height="40" as="geometry">
            <mxRectangle width="90" height="40" as="alternateBounds" />
          </mxGeometry>
        </mxCell>
        <mxCell id="uhPALGmHis_ivpPRdaCl-93" value="28" style="shape=partialRectangle;html=1;whiteSpace=wrap;connectable=0;strokeColor=inherit;overflow=hidden;fillColor=none;top=0;left=0;bottom=0;right=0;pointerEvents=1;" parent="VJrF4VuwuTOzUl-eug8C-119" vertex="1">
          <mxGeometry x="300" width="90" height="40" as="geometry">
            <mxRectangle width="90" height="40" as="alternateBounds" />
          </mxGeometry>
        </mxCell>
        <mxCell id="uhPALGmHis_ivpPRdaCl-83" style="shape=partialRectangle;html=1;whiteSpace=wrap;connectable=0;strokeColor=inherit;overflow=hidden;fillColor=none;top=0;left=0;bottom=0;right=0;pointerEvents=1;" parent="VJrF4VuwuTOzUl-eug8C-119" vertex="1">
          <mxGeometry x="390" width="90" height="40" as="geometry">
            <mxRectangle width="90" height="40" as="alternateBounds" />
          </mxGeometry>
        </mxCell>
        <mxCell id="VJrF4VuwuTOzUl-eug8C-122" value="" style="shape=tableRow;horizontal=0;startSize=0;swimlaneHead=0;swimlaneBody=0;strokeColor=inherit;top=0;left=0;bottom=0;right=0;collapsible=0;dropTarget=0;fillColor=none;points=[[0,0.5],[1,0.5]];portConstraint=eastwest;" parent="VJrF4VuwuTOzUl-eug8C-97" vertex="1">
          <mxGeometry y="360" width="480" height="40" as="geometry" />
        </mxCell>
        <mxCell id="VJrF4VuwuTOzUl-eug8C-123" value="9" style="shape=partialRectangle;html=1;whiteSpace=wrap;connectable=0;strokeColor=inherit;overflow=hidden;fillColor=none;top=0;left=0;bottom=0;right=0;pointerEvents=1;" parent="VJrF4VuwuTOzUl-eug8C-122" vertex="1">
          <mxGeometry width="40" height="40" as="geometry">
            <mxRectangle width="40" height="40" as="alternateBounds" />
          </mxGeometry>
        </mxCell>
        <mxCell id="VJrF4VuwuTOzUl-eug8C-124" value="" style="shape=partialRectangle;html=1;whiteSpace=wrap;connectable=0;strokeColor=inherit;overflow=hidden;fillColor=none;top=0;left=0;bottom=0;right=0;pointerEvents=1;" parent="VJrF4VuwuTOzUl-eug8C-122" vertex="1">
          <mxGeometry x="40" width="80" height="40" as="geometry">
            <mxRectangle width="80" height="40" as="alternateBounds" />
          </mxGeometry>
        </mxCell>
        <mxCell id="uhPALGmHis_ivpPRdaCl-74" value="19" style="shape=partialRectangle;html=1;whiteSpace=wrap;connectable=0;strokeColor=inherit;overflow=hidden;fillColor=none;top=0;left=0;bottom=0;right=0;pointerEvents=1;" parent="VJrF4VuwuTOzUl-eug8C-122" vertex="1">
          <mxGeometry x="120" width="90" height="40" as="geometry">
            <mxRectangle width="90" height="40" as="alternateBounds" />
          </mxGeometry>
        </mxCell>
        <mxCell id="uhPALGmHis_ivpPRdaCl-104" style="shape=partialRectangle;html=1;whiteSpace=wrap;connectable=0;strokeColor=inherit;overflow=hidden;fillColor=none;top=0;left=0;bottom=0;right=0;pointerEvents=1;" parent="VJrF4VuwuTOzUl-eug8C-122" vertex="1">
          <mxGeometry x="210" width="90" height="40" as="geometry">
            <mxRectangle width="90" height="40" as="alternateBounds" />
          </mxGeometry>
        </mxCell>
        <mxCell id="uhPALGmHis_ivpPRdaCl-94" value="29" style="shape=partialRectangle;html=1;whiteSpace=wrap;connectable=0;strokeColor=inherit;overflow=hidden;fillColor=none;top=0;left=0;bottom=0;right=0;pointerEvents=1;" parent="VJrF4VuwuTOzUl-eug8C-122" vertex="1">
          <mxGeometry x="300" width="90" height="40" as="geometry">
            <mxRectangle width="90" height="40" as="alternateBounds" />
          </mxGeometry>
        </mxCell>
        <mxCell id="uhPALGmHis_ivpPRdaCl-84" style="shape=partialRectangle;html=1;whiteSpace=wrap;connectable=0;strokeColor=inherit;overflow=hidden;fillColor=none;top=0;left=0;bottom=0;right=0;pointerEvents=1;" parent="VJrF4VuwuTOzUl-eug8C-122" vertex="1">
          <mxGeometry x="390" width="90" height="40" as="geometry">
            <mxRectangle width="90" height="40" as="alternateBounds" />
          </mxGeometry>
        </mxCell>
        <mxCell id="VJrF4VuwuTOzUl-eug8C-125" value="" style="shape=tableRow;horizontal=0;startSize=0;swimlaneHead=0;swimlaneBody=0;strokeColor=inherit;top=0;left=0;bottom=0;right=0;collapsible=0;dropTarget=0;fillColor=none;points=[[0,0.5],[1,0.5]];portConstraint=eastwest;" parent="VJrF4VuwuTOzUl-eug8C-97" vertex="1">
          <mxGeometry y="400" width="480" height="40" as="geometry" />
        </mxCell>
        <mxCell id="VJrF4VuwuTOzUl-eug8C-126" value="10" style="shape=partialRectangle;html=1;whiteSpace=wrap;connectable=0;strokeColor=inherit;overflow=hidden;fillColor=none;top=0;left=0;bottom=0;right=0;pointerEvents=1;" parent="VJrF4VuwuTOzUl-eug8C-125" vertex="1">
          <mxGeometry width="40" height="40" as="geometry">
            <mxRectangle width="40" height="40" as="alternateBounds" />
          </mxGeometry>
        </mxCell>
        <mxCell id="VJrF4VuwuTOzUl-eug8C-127" value="" style="shape=partialRectangle;html=1;whiteSpace=wrap;connectable=0;strokeColor=inherit;overflow=hidden;fillColor=none;top=0;left=0;bottom=0;right=0;pointerEvents=1;" parent="VJrF4VuwuTOzUl-eug8C-125" vertex="1">
          <mxGeometry x="40" width="80" height="40" as="geometry">
            <mxRectangle width="80" height="40" as="alternateBounds" />
          </mxGeometry>
        </mxCell>
        <mxCell id="uhPALGmHis_ivpPRdaCl-75" value="20" style="shape=partialRectangle;html=1;whiteSpace=wrap;connectable=0;strokeColor=inherit;overflow=hidden;fillColor=none;top=0;left=0;bottom=0;right=0;pointerEvents=1;" parent="VJrF4VuwuTOzUl-eug8C-125" vertex="1">
          <mxGeometry x="120" width="90" height="40" as="geometry">
            <mxRectangle width="90" height="40" as="alternateBounds" />
          </mxGeometry>
        </mxCell>
        <mxCell id="uhPALGmHis_ivpPRdaCl-105" style="shape=partialRectangle;html=1;whiteSpace=wrap;connectable=0;strokeColor=inherit;overflow=hidden;fillColor=none;top=0;left=0;bottom=0;right=0;pointerEvents=1;" parent="VJrF4VuwuTOzUl-eug8C-125" vertex="1">
          <mxGeometry x="210" width="90" height="40" as="geometry">
            <mxRectangle width="90" height="40" as="alternateBounds" />
          </mxGeometry>
        </mxCell>
        <mxCell id="uhPALGmHis_ivpPRdaCl-95" value="30" style="shape=partialRectangle;html=1;whiteSpace=wrap;connectable=0;strokeColor=inherit;overflow=hidden;fillColor=none;top=0;left=0;bottom=0;right=0;pointerEvents=1;" parent="VJrF4VuwuTOzUl-eug8C-125" vertex="1">
          <mxGeometry x="300" width="90" height="40" as="geometry">
            <mxRectangle width="90" height="40" as="alternateBounds" />
          </mxGeometry>
        </mxCell>
        <mxCell id="uhPALGmHis_ivpPRdaCl-85" value="Flood (SL) - Red" style="shape=partialRectangle;html=1;whiteSpace=wrap;connectable=0;strokeColor=inherit;overflow=hidden;fillColor=none;top=0;left=0;bottom=0;right=0;pointerEvents=1;" parent="VJrF4VuwuTOzUl-eug8C-125" vertex="1">
          <mxGeometry x="390" width="90" height="40" as="geometry">
            <mxRectangle width="90" height="40" as="alternateBounds" />
          </mxGeometry>
        </mxCell>
        <mxCell id="uhPALGmHis_ivpPRdaCl-106" value="&lt;h1 style=&quot;margin-top: 0px;&quot;&gt;&lt;span&gt;BHTC Youth Summer Showcase 2025 - Lighting Plot&lt;/span&gt;&lt;/h1&gt;" style="text;html=1;whiteSpace=wrap;overflow=hidden;rounded=0;align=center;" parent="1" vertex="1">
          <mxGeometry x="80" y="20" width="680" height="40" as="geometry" />
        </mxCell>
        <mxCell id="gsc3AVZnk_Cv8aVm4X5c-8" value="1" style="shape=loopLimit;whiteSpace=wrap;html=1;rotation=35;size=5;labelBorderColor=default;align=center;verticalAlign=middle;direction=west;" parent="1" vertex="1">
          <mxGeometry x="330" y="390" width="20" height="30" as="geometry" />
        </mxCell>
        <mxCell id="gsc3AVZnk_Cv8aVm4X5c-13" value="" style="shape=loopLimit;whiteSpace=wrap;html=1;rotation=0;size=5;direction=north;" parent="1" vertex="1">
          <mxGeometry x="625" y="770" width="30" height="20" as="geometry" />
        </mxCell>
        <mxCell id="QwZOxHsbDGRuCsRQ6tuZ-2" value="2" style="shape=loopLimit;whiteSpace=wrap;html=1;rotation=-35;size=5;labelBorderColor=default;align=center;verticalAlign=middle;direction=west;" parent="1" vertex="1">
          <mxGeometry x="490" y="390" width="20" height="30" as="geometry" />
        </mxCell>
        <mxCell id="QwZOxHsbDGRuCsRQ6tuZ-3" value="3" style="shape=loopLimit;whiteSpace=wrap;html=1;rotation=0;size=5;labelBorderColor=default;align=center;verticalAlign=middle;direction=west;" parent="1" vertex="1">
          <mxGeometry x="370" y="390" width="20" height="30" as="geometry" />
        </mxCell>
        <mxCell id="QwZOxHsbDGRuCsRQ6tuZ-4" value="6" style="shape=loopLimit;whiteSpace=wrap;html=1;rotation=0;size=5;labelBorderColor=default;align=center;verticalAlign=middle;direction=west;" parent="1" vertex="1">
          <mxGeometry x="450" y="390" width="20" height="30" as="geometry" />
        </mxCell>
        <mxCell id="QwZOxHsbDGRuCsRQ6tuZ-5" value="5" style="shape=loopLimit;whiteSpace=wrap;html=1;rotation=0;size=5;labelBorderColor=default;align=center;verticalAlign=middle;direction=west;" parent="1" vertex="1">
          <mxGeometry x="410" y="375" width="20" height="60" as="geometry" />
        </mxCell>
        <mxCell id="QwZOxHsbDGRuCsRQ6tuZ-7" value="" style="shape=loopLimit;whiteSpace=wrap;html=1;rotation=0;size=5;labelBorderColor=default;align=center;verticalAlign=middle;direction=north;" parent="1" vertex="1">
          <mxGeometry x="610" y="810" width="60" height="20" as="geometry" />
        </mxCell>
        <mxCell id="s02MtQKe4x2LJ7c7wD41-1" value="" style="whiteSpace=wrap;html=1;" parent="1" vertex="1">
          <mxGeometry x="625" y="850" width="30" height="30" as="geometry" />
        </mxCell>
        <mxCell id="s02MtQKe4x2LJ7c7wD41-2" value="25" style="whiteSpace=wrap;html=1;rotation=30;strokeColor=light-dark(#000000,#FF0000);" parent="1" vertex="1">
          <mxGeometry x="300" y="330" width="30" height="30" as="geometry" />
        </mxCell>
        <mxCell id="s02MtQKe4x2LJ7c7wD41-3" value="30" style="whiteSpace=wrap;html=1;rotation=-29;strokeColor=light-dark(#000000,#FF0000);" parent="1" vertex="1">
          <mxGeometry x="510" y="330" width="30" height="30" as="geometry" />
        </mxCell>
        <mxCell id="gsc3AVZnk_Cv8aVm4X5c-15" value="Key" style="shape=table;startSize=40;container=1;collapsible=0;childLayout=tableLayout;movable=1;resizable=1;rotatable=1;deletable=1;editable=1;locked=0;connectable=1;" parent="1" vertex="1">
          <mxGeometry x="600" y="720" width="160" height="220" as="geometry" />
        </mxCell>
        <mxCell id="gsc3AVZnk_Cv8aVm4X5c-16" value="" style="shape=tableRow;horizontal=0;startSize=0;swimlaneHead=0;swimlaneBody=0;strokeColor=inherit;top=0;left=0;bottom=0;right=0;collapsible=0;dropTarget=0;fillColor=none;points=[[0,0.5],[1,0.5]];portConstraint=eastwest;" parent="gsc3AVZnk_Cv8aVm4X5c-15" vertex="1">
          <mxGeometry y="40" width="160" height="40" as="geometry" />
        </mxCell>
        <mxCell id="gsc3AVZnk_Cv8aVm4X5c-17" value="" style="shape=partialRectangle;html=1;whiteSpace=wrap;connectable=0;strokeColor=inherit;overflow=hidden;fillColor=none;top=0;left=0;bottom=0;right=0;pointerEvents=1;" parent="gsc3AVZnk_Cv8aVm4X5c-16" vertex="1">
          <mxGeometry width="80" height="40" as="geometry">
            <mxRectangle width="80" height="40" as="alternateBounds" />
          </mxGeometry>
        </mxCell>
        <mxCell id="gsc3AVZnk_Cv8aVm4X5c-18" value="Fresnel" style="shape=partialRectangle;html=1;whiteSpace=wrap;connectable=0;strokeColor=inherit;overflow=hidden;fillColor=none;top=0;left=0;bottom=0;right=0;pointerEvents=1;" parent="gsc3AVZnk_Cv8aVm4X5c-16" vertex="1">
          <mxGeometry x="80" width="80" height="40" as="geometry">
            <mxRectangle width="80" height="40" as="alternateBounds" />
          </mxGeometry>
        </mxCell>
        <mxCell id="gsc3AVZnk_Cv8aVm4X5c-19" value="" style="shape=tableRow;horizontal=0;startSize=0;swimlaneHead=0;swimlaneBody=0;strokeColor=inherit;top=0;left=0;bottom=0;right=0;collapsible=0;dropTarget=0;fillColor=none;points=[[0,0.5],[1,0.5]];portConstraint=eastwest;" parent="gsc3AVZnk_Cv8aVm4X5c-15" vertex="1">
          <mxGeometry y="80" width="160" height="40" as="geometry" />
        </mxCell>
        <mxCell id="gsc3AVZnk_Cv8aVm4X5c-20" value="" style="shape=partialRectangle;html=1;whiteSpace=wrap;connectable=0;strokeColor=inherit;overflow=hidden;fillColor=none;top=0;left=0;bottom=0;right=0;pointerEvents=1;" parent="gsc3AVZnk_Cv8aVm4X5c-19" vertex="1">
          <mxGeometry width="80" height="40" as="geometry">
            <mxRectangle width="80" height="40" as="alternateBounds" />
          </mxGeometry>
        </mxCell>
        <mxCell id="gsc3AVZnk_Cv8aVm4X5c-21" value="Profile" style="shape=partialRectangle;html=1;whiteSpace=wrap;connectable=0;strokeColor=inherit;overflow=hidden;fillColor=none;top=0;left=0;bottom=0;right=0;pointerEvents=1;" parent="gsc3AVZnk_Cv8aVm4X5c-19" vertex="1">
          <mxGeometry x="80" width="80" height="40" as="geometry">
            <mxRectangle width="80" height="40" as="alternateBounds" />
          </mxGeometry>
        </mxCell>
        <mxCell id="gsc3AVZnk_Cv8aVm4X5c-22" value="" style="shape=tableRow;horizontal=0;startSize=0;swimlaneHead=0;swimlaneBody=0;strokeColor=inherit;top=0;left=0;bottom=0;right=0;collapsible=0;dropTarget=0;fillColor=none;points=[[0,0.5],[1,0.5]];portConstraint=eastwest;" parent="gsc3AVZnk_Cv8aVm4X5c-15" vertex="1">
          <mxGeometry y="120" width="160" height="50" as="geometry" />
        </mxCell>
        <mxCell id="gsc3AVZnk_Cv8aVm4X5c-23" value="" style="shape=partialRectangle;html=1;whiteSpace=wrap;connectable=0;strokeColor=inherit;overflow=hidden;fillColor=none;top=0;left=0;bottom=0;right=0;pointerEvents=1;" parent="gsc3AVZnk_Cv8aVm4X5c-22" vertex="1">
          <mxGeometry width="80" height="50" as="geometry">
            <mxRectangle width="80" height="50" as="alternateBounds" />
          </mxGeometry>
        </mxCell>
        <mxCell id="gsc3AVZnk_Cv8aVm4X5c-24" value="Flood" style="shape=partialRectangle;html=1;whiteSpace=wrap;connectable=0;strokeColor=inherit;overflow=hidden;fillColor=none;top=0;left=0;bottom=0;right=0;pointerEvents=1;" parent="gsc3AVZnk_Cv8aVm4X5c-22" vertex="1">
          <mxGeometry x="80" width="80" height="50" as="geometry">
            <mxRectangle width="80" height="50" as="alternateBounds" />
          </mxGeometry>
        </mxCell>
        <mxCell id="gsc3AVZnk_Cv8aVm4X5c-25" value="" style="shape=tableRow;horizontal=0;startSize=0;swimlaneHead=0;swimlaneBody=0;strokeColor=inherit;top=0;left=0;bottom=0;right=0;collapsible=0;dropTarget=0;fillColor=none;points=[[0,0.5],[1,0.5]];portConstraint=eastwest;" parent="gsc3AVZnk_Cv8aVm4X5c-15" vertex="1">
          <mxGeometry y="170" width="160" height="50" as="geometry" />
        </mxCell>
        <mxCell id="gsc3AVZnk_Cv8aVm4X5c-26" value="" style="shape=partialRectangle;html=1;whiteSpace=wrap;connectable=0;strokeColor=inherit;overflow=hidden;fillColor=none;top=0;left=0;bottom=0;right=0;pointerEvents=1;" parent="gsc3AVZnk_Cv8aVm4X5c-25" vertex="1">
          <mxGeometry width="80" height="50" as="geometry">
            <mxRectangle width="80" height="50" as="alternateBounds" />
          </mxGeometry>
        </mxCell>
        <mxCell id="gsc3AVZnk_Cv8aVm4X5c-27" value="Other" style="shape=partialRectangle;html=1;whiteSpace=wrap;connectable=0;strokeColor=inherit;overflow=hidden;fillColor=none;top=0;left=0;bottom=0;right=0;pointerEvents=1;" parent="gsc3AVZnk_Cv8aVm4X5c-25" vertex="1">
          <mxGeometry x="80" width="80" height="50" as="geometry">
            <mxRectangle width="80" height="50" as="alternateBounds" />
          </mxGeometry>
        </mxCell>
      </root>
    </mxGraphModel>
  </diagram>
</mxfile>
